<svg width="250" height="250" viewBox="0 0 250 250" fill="none" xmlns="http://www.w3.org/2000/svg">
<path d="M125 249.998C194.036 249.998 250 195.769 250 128.874C250 61.9791 194.036 7.75 125 7.75C55.9644 7.75 0 61.9791 0 128.874C0 195.769 55.9644 249.998 125 249.998Z" fill="#111010"/>
<path d="M186.166 59.8435L186.166 59.8433C187.939 55.478 188.646 51.1247 189.388 46.558C189.514 45.7798 189.642 44.9954 189.776 44.2036L186.166 59.8435ZM186.166 59.8435C185.87 60.5729 185.002 60.9542 184.219 60.6545L184.217 60.6535C183.438 60.3604 183.075 59.5217 183.369 58.799L183.369 58.7989C185.064 54.6249 185.733 50.4446 186.412 46.2035C186.543 45.3844 186.674 44.5629 186.813 43.7388L186.166 59.8435ZM188.535 42.553C189.368 42.6859 189.905 43.4357 189.776 44.2035L186.813 43.7386C186.944 42.9682 187.704 42.4203 188.535 42.553Z" fill="#7B7272" stroke="#7B7272"/>
<path d="M196.49 71.4896L196.49 71.49C195.808 71.9488 194.864 71.7818 194.39 71.1246C193.926 70.48 194.087 69.594 194.76 69.1408C204.83 62.3866 214.695 53.2905 222.033 43.7606L222.033 43.7603C222.521 43.1259 223.467 42.9843 224.142 43.4678C224.806 43.9435 224.933 44.8377 224.452 45.4646C216.935 55.2282 206.817 64.558 196.49 71.4896Z" fill="#7B7272" stroke="#7B7272"/>
<path d="M224.195 77.902L224.196 77.9029C224.417 78.6432 223.977 79.4397 223.174 79.6653C215.077 81.9068 206.155 83.0479 198.021 80.6418C197.218 80.4039 196.79 79.5905 197.024 78.8528L197.024 78.8525C197.259 78.1101 198.09 77.6644 198.898 77.9034L198.898 77.9035C206.56 80.1687 214.889 78.9718 222.33 76.9091C223.14 76.6872 223.971 77.1445 224.195 77.902Z" fill="#7B7272" stroke="#7B7272"/>
<path d="M51.8085 173.76L100.886 44.2383L205.529 150.578L83.939 204.222C64.458 212.817 44.2638 193.672 51.8085 173.76Z" fill="#4B4646"/>
<mask id="mask0_250_28137" style="mask-type:alpha" maskUnits="userSpaceOnUse" x="50" y="44" width="156" height="163">
<path d="M51.8085 173.764L100.886 44.2422L205.529 150.582L83.939 204.226C64.458 212.821 44.2638 193.676 51.8085 173.764Z" fill="#E1DCEB"/>
</mask>
<g mask="url(#mask0_250_28137)">
<path fill-rule="evenodd" clip-rule="evenodd" d="M100.81 126.28C79.8442 99.8916 69.2363 68.4323 65.8149 47.3113L82.6972 44.7852C85.7769 63.7968 95.4976 92.5363 114.389 116.314C133.103 139.868 160.481 158.235 199.527 158.235V174.656C153.959 174.656 121.953 152.892 100.81 126.28Z" fill="#EFEFF1"/>
<path fill-rule="evenodd" clip-rule="evenodd" d="M73.8056 164.491C52.8403 138.103 42.2324 106.643 38.811 85.5222L55.6933 82.9961C58.773 102.008 68.4937 130.747 87.385 154.525C106.099 178.079 133.477 196.446 172.523 196.446V212.867C126.955 212.867 94.9487 191.102 73.8056 164.491Z" fill="#EFEFF1"/>
</g>
<ellipse cx="147.08" cy="185.826" rx="30.1512" ry="28.9782" fill="#B52929"/>
<path fill-rule="evenodd" clip-rule="evenodd" d="M159.281 177.034C160.448 178.176 160.432 180.01 159.244 181.132L144.93 194.656C143.757 195.764 141.876 195.764 140.703 194.656L134.916 189.189C133.729 188.067 133.712 186.232 134.88 185.091C136.047 183.949 137.956 183.934 139.143 185.056L142.816 188.526L155.017 176.999C156.204 175.877 158.113 175.893 159.281 177.034Z" fill="#EFEFF1"/>
<path d="M166.742 85.5987C181.19 100.393 192.835 115.061 199.986 126.807C203.564 132.683 206.002 137.805 207.113 141.832C207.668 143.846 207.884 145.56 207.759 146.946C207.636 148.328 207.178 149.349 206.416 150.036C205.654 150.723 204.564 151.098 203.122 151.129C201.675 151.161 199.908 150.845 197.852 150.185C193.741 148.865 188.577 146.202 182.702 142.398C170.957 134.796 156.464 122.697 142.017 107.902C127.569 93.1078 115.924 78.4405 108.773 66.6945C105.195 60.8179 102.757 55.6963 101.647 51.6693C101.091 49.6554 100.875 47.9407 101 46.5551C101.124 45.1734 101.582 44.1518 102.343 43.4647C103.105 42.7776 104.195 42.4031 105.637 42.3717C107.084 42.3403 108.851 42.656 110.907 43.3161C115.018 44.6361 120.182 47.299 126.058 51.1026C137.802 58.7055 152.295 70.804 166.742 85.5987Z" fill="#1C1A1A" stroke="#4B4646"/>
<path fill-rule="evenodd" clip-rule="evenodd" d="M195.275 126.747C210.383 135.552 228.839 134.311 242.356 125.012C243.257 124.392 244.505 124.598 245.145 125.47C245.784 126.343 245.573 127.553 244.672 128.172C229.905 138.331 209.732 139.695 193.213 130.068C192.267 129.516 191.961 128.326 192.53 127.409C193.1 126.491 194.329 126.195 195.275 126.747Z" fill="#7B7272"/>
<ellipse cx="205" cy="106.587" rx="6" ry="5.81395" fill="#B52929"/>
<path fill-rule="evenodd" clip-rule="evenodd" d="M148.568 2.58036C149.029 3.71861 148.452 5.0042 147.277 5.45179C143.924 6.7294 139.627 10.8447 136.758 15.9669C134.574 19.8659 133.514 23.8036 133.959 27.0261C135.301 25.1703 136.907 23.6481 138.77 22.6703C142.109 20.9174 145.92 21.1034 149.609 23.5393C152.832 25.6677 154.146 28.6963 153.798 31.7139C153.465 34.5991 151.649 37.2073 149.185 38.8458C146.684 40.5089 143.363 41.2758 139.938 40.2594C137.996 39.6832 136.134 38.569 134.429 36.8772C132.804 43.0104 132.862 50.6929 135.549 57.4876C136.001 58.6297 135.412 59.9103 134.233 60.348C133.054 60.7857 131.733 60.2146 131.281 59.0725C127.737 50.1116 128.197 39.8775 131.087 32.4239C131.005 32.2801 130.924 32.1344 130.843 31.9868C127.803 26.4248 129.623 19.4201 132.741 13.8542C135.882 8.24528 140.864 3.13605 145.604 1.32981C146.779 0.882216 148.106 1.4421 148.568 2.58036ZM136.22 32.0431C137.946 34.4191 139.737 35.5674 141.276 36.0243C143.215 36.5995 145.105 36.1869 146.599 35.1938C148.129 34.1762 149.091 32.6516 149.255 31.2218C149.405 29.9245 148.937 28.4559 147.035 27.1995C144.623 25.6071 142.643 25.6748 140.947 26.5648C139.256 27.4523 137.582 29.3095 136.22 32.0431Z" fill="#7B7272"/>
<ellipse cx="152" cy="86.2432" rx="4" ry="3.87597" fill="#B52929"/>
</svg>
