<svg width="108" height="108" viewBox="0 0 108 108" fill="none" xmlns="http://www.w3.org/2000/svg">
<g opacity="0.24">
<path d="M7.37046 17.9284C6.20223 18.1632 4.9809 19.1345 4.42865 20.2659L4.0888 20.9703L4.0357 53.2037L3.9826 85.4372L1.99661 85.4692L0 85.4905V87.9454V90.4003H22.1432H44.2865V87.9454V85.4905H42.5872H40.888V76.2581V67.0257H38.2329H35.5779V76.2581V85.4905H22.4618H9.34583V54.3244V23.1584H22.4618H35.5779V27.481V31.8037H38.2329H40.8986L40.8667 26.4884C40.8349 21.7175 40.8136 21.1304 40.6437 20.7035C40.1871 19.5294 39.2631 18.5795 38.0949 18.0992L37.5426 17.8751L22.6742 17.8644C14.4967 17.8537 7.6041 17.8857 7.37046 17.9284Z" fill="white"/>
<path d="M45.4547 20.5756V23.3507L47.1327 24.2366C50.2975 25.9016 51.8375 26.9796 53.5792 28.7514C55.4802 30.6833 56.7865 32.8179 57.8273 35.6997C59.2398 39.6382 59.8345 42.7335 60.1638 47.8673C60.5673 54.3781 61.1196 58.7328 62.5639 66.6524C63.4667 71.6368 63.4773 71.7649 63.2543 72.9069C62.9781 74.2731 62.4577 75.2551 61.5019 76.2157C60.2169 77.5071 58.9212 78.0515 57.137 78.0515C54.2377 78.0408 52.0074 76.4398 51.1259 73.7181C50.8604 72.8963 50.8286 72.6935 50.7861 70.4627L50.7436 68.0933H48.0992H45.4547V70.0358C45.4547 73.1204 45.7096 74.6574 46.5061 76.5145C48.3965 80.9439 53.1438 83.5696 58.2734 83.0359C62.3728 82.609 65.4739 80.6131 67.0669 77.347C67.9272 75.5646 68.2883 73.8675 68.2883 71.5301C68.2883 69.9077 68.1821 69.0005 67.7042 66.3855C66.281 58.6474 65.5376 52.681 64.9429 44.0783C64.8579 42.8188 64.7836 41.6768 64.7836 41.5594C64.7836 41.3779 65.0809 41.1645 66.3023 40.5027C67.1307 40.0438 68.0121 39.5528 68.2564 39.4141L68.7025 39.1579L68.3201 38.0692C66.589 33.0848 62.8932 28.143 57.9017 24.1299C54.2058 21.1413 49.3736 18.6544 45.8052 17.8753L45.4547 17.8006V20.5756Z" fill="white"/>
<path d="M46.8353 32.2521L46.5698 32.4015L46.5167 35.3154L46.4636 38.2292L46.0388 37.8876C45.8052 37.6955 45.3166 37.3967 44.9555 37.2259C44.3289 36.927 44.2227 36.9057 43.2563 36.9484C42.4067 36.9697 42.1093 37.0338 41.6314 37.2579C40.495 37.8022 39.6667 38.9336 39.2312 40.556C38.9763 41.5059 38.9657 44.0355 39.2206 45.0708C39.4755 46.0847 39.9322 46.9386 40.5375 47.515C41.1641 48.0913 41.4827 48.2728 42.258 48.4542C43.6599 48.7851 45.1148 48.3582 46.3468 47.2588L46.9415 46.7251V47.4296C46.9415 48.2941 47.0265 48.3475 48.2053 48.3475C48.8319 48.3475 49.0974 48.3048 49.2143 48.1767C49.363 48.0273 49.3842 47.1628 49.3842 40.2464C49.3842 33.1487 49.3736 32.4549 49.2036 32.3268C48.9594 32.124 47.1858 32.0707 46.8353 32.2521ZM44.9024 39.4886C45.1467 39.606 45.614 39.9583 45.9326 40.2785L46.5167 40.8655V42.6693V44.4837L46.0282 45.0281C45.0936 46.0741 44.021 46.4156 43.1395 45.9567C41.8863 45.3056 41.4509 42.3171 42.343 40.4706C42.8421 39.4032 43.8723 39.019 44.9024 39.4886Z" fill="white"/>
<path d="M29.0145 33.3725C28.8765 33.5006 27.9844 35.9341 26.4126 40.5023C25.0957 44.3126 23.9911 47.568 23.9487 47.7174C23.8212 48.2191 24.0974 48.3472 25.2231 48.3472C26.7418 48.3472 26.6675 48.4112 27.2728 46.5113L27.7826 44.8783L30.6607 44.8463L33.5388 44.825L34.091 46.4793C34.4627 47.5894 34.707 48.1764 34.8344 48.2404C34.9406 48.3045 35.5779 48.3472 36.2363 48.3472C37.4895 48.3472 37.7019 48.2831 37.7019 47.8989C37.7019 47.7921 36.608 44.5261 35.2592 40.6303C33.5281 35.6139 32.7529 33.5112 32.5936 33.3725C32.4024 33.2231 32.1369 33.191 30.7987 33.191C29.4606 33.191 29.1951 33.2231 29.0145 33.3725ZM31.797 39.3709C32.3599 41.0893 32.806 42.5195 32.7847 42.5515C32.7635 42.5729 31.7864 42.5729 30.6076 42.5622L28.4835 42.5302L29.5455 39.2855C30.1297 37.5031 30.6394 36.0942 30.6925 36.1369C30.735 36.1902 31.2342 37.6418 31.797 39.3709Z" fill="white"/>
<path d="M29.3331 49.1581L29.0995 49.3182V57.0991V64.8799L29.3331 65.04C29.6093 65.2322 31.2448 65.2748 31.6908 65.1041L31.967 64.9973V57.1098C31.967 47.9521 32.1475 48.9874 30.5651 48.9874C29.8429 48.9874 29.5031 49.0301 29.3331 49.1581Z" fill="white"/>
<path d="M16.3977 50.2037C16.2172 50.2891 16.0366 50.4278 15.9941 50.5346C15.9623 50.6306 15.9304 53.854 15.9304 57.6964C15.9304 64.538 15.9304 64.6767 16.1428 64.8902C16.3446 65.093 16.4933 65.1036 19.2864 65.1036C22.5468 65.1036 23.2159 65.0183 24.416 64.4312C24.7771 64.2498 25.2869 63.8976 25.5418 63.6521C27.018 62.2218 27.1454 59.6602 25.8179 58.1446C25.4993 57.7711 24.3417 57.0986 24.0337 57.0986C23.8107 57.0986 23.8744 56.9279 24.1611 56.7998C24.7134 56.5436 25.3718 55.8072 25.6055 55.1988C25.786 54.6972 25.8179 54.4196 25.786 53.6298C25.7542 52.7866 25.7011 52.5838 25.4249 52.0822C24.809 50.9828 23.662 50.3638 21.8671 50.161C20.4865 50.0009 16.8013 50.0329 16.3977 50.2037ZM21.9202 52.5732C22.5468 52.904 22.7592 53.2563 22.8123 54.0461C22.8654 54.8999 22.7061 55.4016 22.2495 55.8072C21.7503 56.2341 21.283 56.3515 19.9449 56.3515H18.7979V54.3129V52.2743L20.1573 52.3063C21.2618 52.3383 21.5804 52.3917 21.9202 52.5732ZM22.3769 58.7423C23.4708 59.212 23.9806 60.5461 23.4814 61.6348C23.0248 62.6274 22.43 62.8622 20.3272 62.8622H18.7979V60.6635V58.4648L20.3697 58.5075C21.5485 58.5395 22.0371 58.6036 22.3769 58.7423Z" fill="white"/>
<path d="M51.7737 53.812C49.4904 54.0254 47.9292 55.509 47.4088 57.9639C47.1751 59.0846 47.2601 61.262 47.5787 62.2226C48.354 64.528 50.2338 65.5633 53.3137 65.3925C54.5137 65.3178 55.905 65.0083 56.436 64.6988C56.7546 64.5066 56.7652 64.4853 56.7971 63.6528C56.8183 63.0444 56.7865 62.7562 56.6909 62.6815C56.5953 62.5961 56.2661 62.6495 55.5439 62.8843C54.3438 63.2579 52.8782 63.3859 52.0605 63.1832C50.956 62.9163 50.3187 62.1585 50.1701 60.9204L50.0957 60.312L53.5261 60.28L56.9458 60.248L57.1582 59.9812C57.36 59.7357 57.3706 59.6076 57.3175 58.5403C57.2113 56.2028 56.3298 54.7512 54.6093 54.1002C53.8765 53.8333 52.772 53.7159 51.7737 53.812ZM53.1544 55.8292C53.9934 56.0641 54.5881 57.014 54.5881 58.1027V58.4869H52.3578H50.1276V58.188C50.1382 57.7611 50.4674 56.8539 50.7648 56.4803C50.9984 56.2028 51.402 55.9573 51.933 55.7759C52.2091 55.6905 52.7189 55.7118 53.1544 55.8292Z" fill="white"/>
<path d="M35.5779 53.9933C35.3655 54.036 35.1425 54.1107 35.0681 54.1534C34.9088 54.2495 34.8876 61.0377 35.0469 62.1691C35.185 63.1403 35.6735 64.133 36.247 64.6239C36.5231 64.8694 36.9585 65.0936 37.4258 65.2323C38.8914 65.6806 40.3358 65.3177 41.6845 64.1543L42.3218 63.5993L42.3536 64.3037C42.3855 64.9548 42.4067 65.0188 42.6722 65.1149C43.097 65.2857 44.5945 65.1896 44.7113 64.9975C44.775 64.9014 44.8175 62.6707 44.8175 59.5328V54.2281L44.5839 54.0894C44.4352 54.0147 43.9467 53.9613 43.3838 53.9613C42.8209 53.9613 42.3324 54.0147 42.1943 54.0894L41.9501 54.2281V57.8144V61.4113L41.3553 61.9876C40.7287 62.596 40.0703 62.9589 39.5817 62.9696C38.8702 62.9696 38.1268 62.3719 37.9144 61.6034C37.8506 61.3686 37.8082 59.7889 37.8082 57.7183C37.8082 54.3882 37.7975 54.2174 37.6064 54.1214C37.3302 53.972 36.0452 53.8866 35.5779 53.9933Z" fill="white"/>
</g>
</svg>
