<svg width="108" height="108" viewBox="0 0 108 108" fill="none" xmlns="http://www.w3.org/2000/svg">
<path d="M68.7093 46.1909H64.4705L59.1737 43.5674V41.885C59.1737 41.2319 58.6413 40.7003 57.9872 40.7003H49.5888C48.9347 40.7003 48.4023 41.2319 48.4023 41.885V42.382H43.3678L39.9344 35.773C39.7867 35.4955 39.538 35.2846 39.2369 35.1892C39.1166 35.1526 38.993 35.1493 38.8703 35.1501L37.4593 32.4481C37.9116 32.1458 38.1161 31.5801 37.92 31.0596L36.4056 27.0335L37.0142 26.7161C37.405 26.511 37.6509 26.1064 37.6509 25.6643L37.6392 19.616C37.639 19.5995 37.6276 19.5861 37.627 19.5699C37.6198 19.3972 37.5843 19.2267 37.5032 19.0698L30.9116 6.47023L32.0335 5.88936C32.3113 5.74483 32.5226 5.49353 32.6181 5.19283C32.7106 4.89233 32.6817 4.56857 32.537 4.28841L30.6211 0.632729C30.3202 0.0518662 29.6083 -0.162034 29.0237 0.129948L9.04377 10.4727C8.76591 10.6173 8.55461 10.8685 8.45915 11.1692C8.3666 11.4698 8.39551 11.7935 8.54026 12.0737L10.4561 15.7294C10.6674 16.1339 11.0813 16.365 11.5066 16.365C11.6919 16.365 11.877 16.3216 12.0536 16.2321L13.2841 15.5953L19.905 28.2508C19.9378 28.3134 20.0013 28.3423 20.043 28.3963C20.1161 28.4919 20.1741 28.5988 20.2754 28.6697L25.2329 32.1375C25.4355 32.282 25.6728 32.3543 25.913 32.3543C26.101 32.3543 26.2892 32.308 26.4629 32.2185L26.9619 31.9583L29.3916 35.5014C29.6201 35.8336 29.9905 36.0187 30.3697 36.0187C30.5117 36.0187 30.6522 35.9681 30.7909 35.9146L32.204 38.6209C31.9545 38.9705 31.893 39.4382 32.1031 39.8476L33.4126 42.382H4.22812C1.89839 42.382 0 44.2777 0 46.604V58.2211C0 60.14 1.29942 61.8161 3.16018 62.3015L4.66508 62.6944C5.9905 63.0412 7.07571 64.0065 7.57069 65.2808L8.82956 68.5173C9.14505 69.3294 9.20578 70.2049 9.02921 70.965L3.4553 88.46C3.19491 89.564 3.44948 90.7083 4.15284 91.5984C4.85891 92.4885 5.91231 93 7.04971 93H18.6518C20.0525 93 21.3519 92.3699 22.2173 91.2719C23.0827 90.1738 23.3923 88.7666 23.0652 87.4053L22.7064 85.9229C22.5993 85.4662 22.5935 85.0098 22.6399 84.7294L26.8102 73.5574C26.8651 73.332 27.0475 73.1586 27.4815 73.0604L28.0632 72.8176C28.26 72.78 28.4973 72.8639 28.6942 73.1038L38.0013 83.3569C38.2009 83.5793 38.4817 83.718 38.7797 83.7413L46.8396 84.4002C47.6297 84.5389 48.4428 84.3367 49.0593 83.8223C49.6786 83.3108 50.0345 82.5536 50.0345 81.7503V78.3314C50.0345 76.9761 49.0187 75.826 47.67 75.6582L41.3524 74.8722L32.7514 63.3361C32.5517 63.0703 32.4475 62.7494 32.4475 62.4113V61.1919C32.4475 60.3394 33.1422 59.6457 33.9959 59.6457H48.4023V60.4C48.4023 61.0531 48.9347 61.5848 49.5888 61.5848H57.987C58.6411 61.5848 59.1735 61.0531 59.1735 60.4V59.3102L64.3304 56.7559H68.7093C69.3634 56.7559 69.8958 56.2243 69.8958 55.5712V47.3757C69.8958 46.7226 69.3634 46.1909 68.7093 46.1909ZM38.3773 37.9172L40.6942 42.382H36.081L34.7517 39.808L36.7954 38.7416L38.3773 37.9172ZM12.0101 13.5878L11.194 12.0274L29.0673 2.77425L29.8834 4.33471L28.838 4.87605C28.8099 4.88806 28.7796 4.88671 28.7518 4.90124L23.7117 7.52985L12.0101 13.5878ZM15.4047 14.5329L24.9034 9.5803L28.8069 7.55968L34.8518 19.118L28.1542 22.6114L21.4561 26.1037L15.4047 14.5329ZM26.0026 29.7882L23.2334 27.8496L35.272 21.5707L35.2779 24.9507L34.383 25.4174C34.3814 25.4184 34.3793 25.418 34.3778 25.4188L28.3463 28.5659L26.0026 29.7882ZM30.7573 33.2965C30.756 33.2973 30.7556 33.2982 30.7542 33.299L29.0788 30.8546L29.5084 30.6303L34.2889 28.1375L35.3326 30.912C35.3289 30.9137 35.3248 30.9136 35.3211 30.9155L30.7573 33.2965ZM32.9047 34.8484L33.2277 34.6797L35.3683 33.5639L36.7046 36.1171L34.5369 37.249L34.2419 37.4028L32.9047 34.8484ZM48.4021 50.517H18.0875C17.4335 50.517 16.901 51.0486 16.901 51.7018C16.901 52.3549 17.4335 52.8866 18.0875 52.8866H48.4023V57.2762H33.9959C31.834 57.2762 30.0745 59.0331 30.0745 61.1919V62.4113C30.0745 63.2638 30.3437 64.0758 30.8501 64.752L39.752 76.6928C39.9459 76.9499 40.2383 77.1204 40.5565 77.158L47.3747 78.0047C47.5425 78.0278 47.6613 78.1636 47.6613 78.3312L47.5454 82.0012L47.1547 82.056L39.4421 81.4203L30.5055 71.5835C30.5024 71.5794 30.4981 71.577 30.495 71.5732C30.4919 71.5691 30.4913 71.5643 30.4882 71.5604L24.625 64.3936V56.8021C24.625 56.1489 24.0926 55.6173 23.4385 55.6173C22.7844 55.6173 22.252 56.1489 22.252 56.8021V64.8156C22.252 65.0872 22.3475 65.353 22.5211 65.564L26.808 70.8022C25.6788 71.0291 24.7785 71.8789 24.547 72.8637L20.368 84.0675C20.2001 84.8623 20.2089 85.6714 20.4027 86.4747L20.7615 87.96C20.9177 88.6073 20.7702 89.2835 20.3563 89.8066C19.9425 90.3297 19.3202 90.6302 18.6518 90.6302H7.04971C6.64458 90.6302 6.26544 90.4481 6.01359 90.1304C5.76174 89.8124 5.66918 89.4021 5.73865 89.0928L11.3126 71.5951C11.6222 70.2803 11.5297 68.9219 11.0405 67.6619L9.78166 64.4253C9.01194 62.4429 7.32174 60.9402 5.26405 60.4056L3.76206 60.0127C2.94306 59.7988 2.37299 59.062 2.37299 58.2211V46.604C2.37299 45.581 3.20364 44.7516 4.22812 44.7516H48.4023V50.517H48.4021ZM56.8005 44.3009V58.5766V59.2152H50.7753V43.0698H56.8005V44.3009ZM63.0081 54.7679L59.1735 56.6693V46.2082L63.0081 48.1096V54.7679ZM67.5228 54.3864H65.3813V48.5605H67.5228V54.3864Z" fill="white" fill-opacity="0.24"/>
<path d="M3.52765 47.393C3.52765 48.0462 4.06007 48.5778 4.71415 48.5778H14.3194C14.9735 48.5778 15.5059 48.0462 15.5059 47.393C15.5059 46.7399 14.9735 46.2083 14.3194 46.2083H4.71415C4.06026 46.2083 3.52765 46.7401 3.52765 47.393Z" fill="white" fill-opacity="0.24"/>
<path d="M14.3194 50.1528H4.71415C4.06007 50.1528 3.52765 50.6845 3.52765 51.3376C3.52765 51.9907 4.06007 52.5224 4.71415 52.5224H14.3194C14.9735 52.5224 15.5059 51.9907 15.5059 51.3376C15.5059 50.6847 14.9735 50.1528 14.3194 50.1528Z" fill="white" fill-opacity="0.24"/>
<path d="M23.4386 48.5781H40.7042C41.3583 48.5781 41.8907 48.0464 41.8907 47.3933C41.8907 46.7401 41.3583 46.2085 40.7042 46.2085H23.4386C22.7845 46.2085 22.2521 46.7401 22.2521 47.3933C22.2521 48.0462 22.7845 48.5781 23.4386 48.5781Z" fill="white" fill-opacity="0.24"/>
<path d="M23.2272 22.3239C22.9234 21.743 22.2027 21.5262 21.6268 21.8296C21.048 22.133 20.8251 22.8497 21.1321 23.4277L21.5314 24.1849C21.7427 24.5865 22.1536 24.8176 22.5789 24.8176C22.767 24.8176 22.9552 24.7713 23.1317 24.6789C23.7105 24.3755 23.9335 23.6588 23.6265 23.0809L23.2272 22.3239Z" fill="white" fill-opacity="0.24"/>
<path d="M21.708 19.4108L19.3899 14.9836C19.0861 14.4028 18.3742 14.1804 17.7896 14.4838C17.2108 14.7872 16.9851 15.501 17.289 16.0818L19.607 20.509C19.8183 20.9136 20.2322 21.1447 20.6575 21.1447C20.8428 21.1447 21.0308 21.1013 21.2074 21.0089C21.786 20.7055 22.0119 19.9917 21.708 19.4108Z" fill="white" fill-opacity="0.24"/>
<path d="M72.9375 54.057L72.3616 53.9125C71.7163 53.7449 71.0826 54.1378 70.9233 54.7708C70.7642 55.4065 71.1489 56.0482 71.7828 56.2071L72.3587 56.3516C72.4571 56.3776 72.5526 56.3892 72.6482 56.3892C73.1806 56.3892 73.664 56.031 73.7971 55.4933C73.9562 54.8574 73.5714 54.2159 72.9375 54.057Z" fill="white" fill-opacity="0.24"/>
<path d="M77.3681 54.7331L76.5722 54.5337C75.9239 54.3632 75.2902 54.7591 75.1339 55.392C74.9747 56.0277 75.3595 56.6694 75.9934 56.8283L76.7893 57.0277C76.8877 57.0536 76.9832 57.0653 77.0788 57.0653C77.6112 57.0653 78.0946 56.707 78.2277 56.1694C78.387 55.5337 78.002 54.892 77.3681 54.7331Z" fill="white" fill-opacity="0.24"/>
<path d="M82.0535 55.7098L80.8728 55.4121C80.2448 55.2475 79.5965 55.6375 79.4345 56.2705C79.2725 56.9033 79.6572 57.5477 80.294 57.7067L81.4747 58.0043C81.5702 58.0303 81.6686 58.0419 81.7642 58.0419C82.2937 58.0419 82.777 57.6837 82.9131 57.146C83.0751 56.5132 82.6901 55.8688 82.0535 55.7098Z" fill="white" fill-opacity="0.24"/>
<path d="M88.1456 57.2385L86.2327 56.7588C85.5815 56.5854 84.9507 56.9841 84.7943 57.6171C84.6352 58.2528 85.02 58.8945 85.6539 59.0534L87.5668 59.5331C87.6652 59.5591 87.7607 59.5707 87.8563 59.5707C88.3887 59.5707 88.8721 59.2125 89.0052 58.6748C89.1643 58.0391 88.7793 57.3976 88.1456 57.2385Z" fill="white" fill-opacity="0.24"/>
<path d="M72.6481 50.2885H72.0722C71.4182 50.2885 70.8857 50.8201 70.8857 51.4732C70.8857 52.1264 71.4182 52.658 72.0722 52.658H72.6481C73.3022 52.658 73.8346 52.1264 73.8346 51.4732C73.8346 50.8203 73.3022 50.2885 72.6481 50.2885Z" fill="white" fill-opacity="0.24"/>
<path d="M77.0788 50.2885H76.2829C75.6289 50.2885 75.0964 50.8201 75.0964 51.4732C75.0964 52.1264 75.6289 52.658 76.2829 52.658H77.0788C77.7329 52.658 78.2653 52.1264 78.2653 51.4732C78.2653 50.8203 77.7329 50.2885 77.0788 50.2885Z" fill="white" fill-opacity="0.24"/>
<path d="M81.7643 50.2885H80.5836C79.9295 50.2885 79.3971 50.8201 79.3971 51.4732C79.3971 52.1264 79.9295 52.658 80.5836 52.658H81.7643C82.4183 52.658 82.9508 52.1264 82.9508 51.4732C82.9508 50.8203 82.4182 50.2885 81.7643 50.2885Z" fill="white" fill-opacity="0.24"/>
<path d="M85.9431 52.6583H87.856C88.5101 52.6583 89.0425 52.1266 89.0425 51.4735C89.0425 50.8204 88.5101 50.2887 87.856 50.2887H85.9431C85.289 50.2887 84.7566 50.8204 84.7566 51.4735C84.7566 52.1264 85.289 52.6583 85.9431 52.6583Z" fill="white" fill-opacity="0.24"/>
<path d="M72.0723 49.069C72.1678 49.069 72.2632 49.0574 72.3618 49.0314L72.9377 48.8869C73.5714 48.728 73.9563 48.0863 73.7972 47.4506C73.641 46.8178 73.0042 46.4218 72.3589 46.5923L71.783 46.7368C71.1493 46.8957 70.7643 47.5374 70.9235 48.1731C71.0564 48.7108 71.5397 49.069 72.0723 49.069Z" fill="white" fill-opacity="0.24"/>
<path d="M76.2829 48.4477C76.3783 48.4477 76.4738 48.4361 76.5724 48.4101L77.3683 48.2107C78.002 48.0519 78.3869 47.4102 78.2278 46.7745C78.0716 46.1417 77.4377 45.7486 76.7895 45.9162L75.9936 46.1155C75.3599 46.2744 74.9749 46.9161 75.134 47.5518C75.2671 48.0895 75.7505 48.4477 76.2829 48.4477Z" fill="white" fill-opacity="0.24"/>
<path d="M80.5833 47.5693C80.6788 47.5693 80.7772 47.5577 80.8728 47.5317L82.0535 47.2341C82.6901 47.0752 83.0751 46.4308 82.9131 45.7978C82.751 45.1621 82.1028 44.769 81.4747 44.9395L80.294 45.2371C79.6574 45.396 79.2725 46.0404 79.4345 46.6734C79.5705 47.2111 80.0538 47.5693 80.5833 47.5693Z" fill="white" fill-opacity="0.24"/>
<path d="M85.9432 46.2227C86.0386 46.2227 86.1341 46.2111 86.2326 46.1852L88.1456 45.7054C88.7793 45.5466 89.1643 44.9049 89.0052 44.2692C88.849 43.6335 88.218 43.2403 87.5668 43.4108L85.6539 43.8906C85.0202 44.0494 84.6352 44.6911 84.7943 45.3268C84.9274 45.8643 85.4107 46.2227 85.9432 46.2227Z" fill="white" fill-opacity="0.24"/>
</svg>
