<svg width="43" height="26" viewBox="0 0 43 26" fill="none" xmlns="http://www.w3.org/2000/svg">
<g clip-path="url(#clip0_630_1274)">
<path d="M40.85 0H2.15C0.962588 0 0 0.97005 0 2.16667V23.8333C0 25.03 0.962588 26 2.15 26H40.85C42.0374 26 43 25.03 43 23.8333V2.16667C43 0.97005 42.0374 0 40.85 0Z" fill="white"/>
<path d="M18.2066 8.81977L14.7087 17.2023H12.4266L10.7053 10.5132C10.6008 10.1012 10.5105 9.95023 10.1922 9.77679C9.67333 9.49393 8.81645 9.22878 8.0625 9.06395L8.11442 8.81977H11.788C12.2561 8.81977 12.6771 9.13285 12.7834 9.67463L13.6925 14.5246L15.9392 8.81923L18.2066 8.81977ZM27.1483 14.4655C27.1575 12.2531 24.1025 12.1314 24.1235 11.1429C24.13 10.8421 24.4157 10.5224 25.0393 10.4407C25.3486 10.4 26.2009 10.3689 27.1683 10.8159L27.5475 9.03828C27.028 8.84902 26.3597 8.66675 25.5281 8.66675C23.3942 8.66675 21.8925 9.80614 21.8798 11.4377C21.8659 12.6444 22.9513 13.3178 23.7696 13.7187C24.6111 14.1295 24.8933 14.3932 24.8902 14.7607C24.8841 15.323 24.2191 15.5713 23.5975 15.581C22.5121 15.5978 21.8828 15.2861 21.3807 15.0515L20.9894 16.8879C21.4938 17.1205 22.4249 17.3233 23.3903 17.3334C25.6585 17.3334 27.142 16.2082 27.149 14.4655H27.1483ZM32.7838 17.2023H34.7805L33.0367 8.81977H31.194C30.9972 8.81809 30.8044 8.87583 30.6407 8.98546C30.4769 9.0951 30.3497 9.25164 30.2756 9.43478L27.0358 17.2023H29.3028L29.7527 15.9503H32.5225L32.7838 17.2023ZM30.3749 14.2322L31.5113 11.0847L32.1653 14.2322H30.3749ZM21.2912 8.81977L19.506 17.2023H17.3472L19.1331 8.81977H21.2912Z" fill="#1434CB"/>
<path d="M40.85 0.270752H2.15005C1.11106 0.270752 0.268799 1.11955 0.268799 2.16659V23.8333C0.268799 24.8803 1.11106 25.7291 2.15005 25.7291H40.85C41.889 25.7291 42.7313 24.8803 42.7313 23.8333V2.16659C42.7313 1.11955 41.889 0.270752 40.85 0.270752Z" stroke="black" stroke-opacity="0.12" stroke-width="0.791625"/>
</g>
<defs>
<clipPath id="clip0_630_1274">
<rect width="43" height="26" fill="white"/>
</clipPath>
</defs>
</svg>
