<svg width="43" height="26" viewBox="0 0 43 26" fill="none" xmlns="http://www.w3.org/2000/svg">
<g clip-path="url(#clip0_630_1278)">
<g clip-path="url(#clip1_630_1278)">
<path d="M40.85 0H2.15C0.962588 0 0 0.97005 0 2.16667V23.8333C0 25.03 0.962588 26 2.15 26H40.85C42.0374 26 43 25.03 43 23.8333V2.16667C43 0.97005 42.0374 0 40.85 0Z" fill="white"/>
<path d="M40.85 0.270752H2.15005C1.11106 0.270752 0.268799 1.11955 0.268799 2.16659V23.8333C0.268799 24.8803 1.11106 25.7291 2.15005 25.7291H40.85C41.889 25.7291 42.7313 24.8803 42.7313 23.8333V2.16659C42.7313 1.11955 41.889 0.270752 40.85 0.270752Z" stroke="black" stroke-opacity="0.12" stroke-width="0.791625"/>
<path d="M24.8102 7.01831H18.3673V18.7974H24.8102V7.01831Z" fill="#FF5F00"/>
<path d="M18.7764 12.9079C18.7754 11.7735 19.028 10.6537 19.5153 9.63335C20.0026 8.61296 20.7116 7.71872 21.5888 7.01835C20.5025 6.14973 19.198 5.60953 17.8242 5.45954C16.4505 5.30952 15.0629 5.55574 13.8202 6.1701C12.5775 6.7844 11.5298 7.74207 10.7968 8.93352C10.0638 10.125 9.67505 11.5023 9.67505 12.9079C9.67505 14.3135 10.0638 15.6908 10.7968 16.8823C11.5298 18.0738 12.5775 19.0314 13.8202 19.6457C15.0629 20.26 16.4505 20.5063 17.8242 20.3562C19.198 20.2062 20.5025 19.666 21.5888 18.7974C20.7116 18.0971 20.0026 17.2028 19.5153 16.1825C19.0281 15.1621 18.7754 14.0423 18.7764 12.9079Z" fill="#EB001B"/>
<path d="M33.502 12.9079C33.502 14.3135 33.1133 15.6908 32.3803 16.8823C31.6474 18.0737 30.5997 19.0314 29.357 19.6457C28.1144 20.26 26.7269 20.5063 25.3531 20.3563C23.9794 20.2063 22.6749 19.666 21.5886 18.7974C22.465 18.0964 23.1735 17.202 23.6607 16.1818C24.1478 15.1615 24.401 14.0421 24.401 12.9079C24.401 11.7737 24.1478 10.6542 23.6607 9.63406C23.1735 8.61383 22.465 7.71943 21.5886 7.01835C22.6749 6.14973 23.9794 5.60953 25.3531 5.45954C26.7269 5.30952 28.1144 5.55574 29.357 6.1701C30.5997 6.78445 31.6474 7.74207 32.3803 8.93357C33.1133 10.125 33.502 11.5023 33.502 12.9079Z" fill="#F79E1B"/>
<path d="M32.7997 17.55V17.3089H32.8952V17.2598H32.6519V17.3089H32.7475V17.55H32.7997ZM33.2722 17.55V17.2593H33.1976L33.1118 17.4593L33.026 17.2593H32.9513V17.55H33.004V17.3307L33.0845 17.5198H33.1391L33.2196 17.3302V17.55H33.2722Z" fill="#F79E1B"/>
</g>
</g>
<defs>
<clipPath id="clip0_630_1278">
<rect width="43" height="26" fill="white"/>
</clipPath>
<clipPath id="clip1_630_1278">
<rect width="43" height="26" fill="white"/>
</clipPath>
</defs>
</svg>
